<svg width="20" height="20" viewBox="0 0 20 20" fill="none" xmlns="http://www.w3.org/2000/svg">
<g clip-path="url(#clip0_1411_44925)">
<path d="M6 0C6.55228 0 7 0.447715 7 1V2L13 2V1C13 0.447715 13.4477 0 14 0C14.5523 0 15 0.447715 15 1V2H16C18.2091 2 20 3.79086 20 6V9C20 9.55229 19.5523 10 19 10H2L2 17.9984L2.00155 17.9997C2.00122 17.9996 2.00141 17.9996 2.00155 17.9997L2.00325 18H6.5C7.05229 18 7.5 18.4477 7.5 19C7.5 19.5523 7.05229 20 6.5 20L2.00325 20C0.902915 20 0 19.1088 0 18V6C0 3.79086 1.79086 2 4 2H5V1C5 0.447715 5.44772 0 6 0Z" fill="#808089"/>
<path d="M16.7071 12.2929L19.7071 15.2929C20.0976 15.6834 20.0976 16.3166 19.7071 16.7071L16.7071 19.7071C16.3166 20.0976 15.6834 20.0976 15.2929 19.7071C14.9024 19.3166 14.9024 18.6834 15.2929 18.2929L16.5858 17H10C9.44771 17 9 16.5523 9 16C9 15.4477 9.44771 15 10 15H16.5858L15.2929 13.7071C14.9024 13.3166 14.9024 12.6834 15.2929 12.2929C15.6834 11.9024 16.3166 11.9024 16.7071 12.2929Z" fill="#808089"/>
</g>
<defs>
<clipPath id="clip0_1411_44925">
<rect width="20" height="20" fill="white"/>
</clipPath>
</defs>
</svg>
