<svg width="20" height="20" viewBox="0 0 20 20" fill="none" xmlns="http://www.w3.org/2000/svg">
<g clip-path="url(#clip0_1411_44947)">
<path d="M13 1C13 0.447715 13.4477 0 14 0C14.5523 0 15 0.447715 15 1V2H16C18.2091 2 20 3.79086 20 6V18C20 19.1088 19.0971 20 17.9967 20L13.5 20C12.9477 20 12.5 19.5523 12.5 19C12.5 18.4477 12.9477 18 13.5 18L17.9967 18L17.998 18L18 17.9984L18 10H1C0.447716 10 4.76837e-07 9.55229 4.76837e-07 9V6C4.76837e-07 3.79086 1.79086 2 4 2H5V1C5 0.447715 5.44772 0 6 0C6.55229 0 7 0.447715 7 1V2L13 2V1Z" fill="#808089"/>
<path d="M4.70711 13.7071C5.09763 13.3166 5.09763 12.6834 4.70711 12.2929C4.31658 11.9024 3.68342 11.9024 3.29289 12.2929L0.292893 15.2929C-0.097631 15.6834 -0.097631 16.3166 0.292893 16.7071L3.29289 19.7071C3.68342 20.0976 4.31658 20.0976 4.70711 19.7071C5.09763 19.3166 5.09763 18.6834 4.70711 18.2929L3.41421 17H10C10.5523 17 11 16.5523 11 16C11 15.4477 10.5523 15 10 15H3.41421L4.70711 13.7071Z" fill="#808089"/>
</g>
<defs>
<clipPath id="clip0_1411_44947">
<rect width="20" height="20" fill="white" transform="matrix(-1 0 0 1 20 0)"/>
</clipPath>
</defs>
</svg>
