<svg width="25" height="24" viewBox="0 0 25 24" fill="none" xmlns="http://www.w3.org/2000/svg">
<g clip-path="url(#clip0_1411_44983)">
<path d="M6.5 2H18.5C19.6046 2 20.5 2.89543 20.5 4V7.5H20C17.7909 7.5 16 9.29086 16 11.5V12.5L9 12.5V11.5C9 9.29086 7.20914 7.5 5 7.5H4.5L4.5 4C4.5 2.89543 5.39543 2 6.5 2Z" fill="#808089"/>
<path d="M5 9C3.61929 9 2.5 10.1193 2.5 11.5V18C2.5 18.5523 2.94772 19 3.5 19H4.5L4.5 21C4.5 21.5523 4.94772 22 5.5 22C6.05228 22 6.5 21.5523 6.5 21V19H18.5V21C18.5 21.5523 18.9477 22 19.5 22C20.0523 22 20.5 21.5523 20.5 21V19H21.5C22.0523 19 22.5 18.5523 22.5 18V11.5C22.5 10.1193 21.3807 9 20 9C18.6193 9 17.5 10.1193 17.5 11.5V13C17.5 13.5523 17.0523 14 16.5 14H8.5C7.94772 14 7.5 13.5523 7.5 13V11.5C7.5 10.1193 6.38071 9 5 9Z" fill="#808089"/>
</g>
<defs>
<clipPath id="clip0_1411_44983">
<rect width="20" height="20" fill="white" transform="translate(2.5 2)"/>
</clipPath>
</defs>
</svg>
