<svg width="18" height="18" viewBox="0 0 18 18" fill="none" xmlns="http://www.w3.org/2000/svg">
<g clip-path="url(#clip0_1411_26905)">
<path d="M6.50016 7.33332C6.50016 6.87309 6.87326 6.49999 7.3335 6.49999H8.16683V5.66666C8.16683 5.20642 8.53993 4.83332 9.00016 4.83332C9.4604 4.83332 9.8335 5.20642 9.8335 5.66666V6.49999H10.6668C11.1271 6.49999 11.5002 6.87309 11.5002 7.33332C11.5002 7.79356 11.1271 8.16666 10.6668 8.16666H9.8335V8.99999C9.8335 9.46023 9.4604 9.83332 9.00016 9.83332C8.53993 9.83332 8.16683 9.46023 8.16683 8.99999V8.16666H7.3335C6.87326 8.16666 6.50016 7.79356 6.50016 7.33332Z" fill="white"/>
<path fill-rule="evenodd" clip-rule="evenodd" d="M2.3335 2.33332C2.3335 1.41285 3.07969 0.666656 4.00016 0.666656H14.0002C14.9206 0.666656 15.6668 1.41285 15.6668 2.33332V16.5C15.6668 16.8121 15.4924 17.0981 15.2148 17.241C14.9373 17.3838 14.6031 17.3595 14.3491 17.1781L9.00016 13.3574L3.65119 17.1781C3.39718 17.3595 3.06307 17.3838 2.78551 17.241C2.50795 17.0981 2.3335 16.8121 2.3335 16.5V2.33332ZM14.0002 2.33332L4.00016 2.33332V14.8807L8.5158 11.6552C8.80555 11.4483 9.19478 11.4483 9.48453 11.6552L14.0002 14.8807V2.33332Z" fill="white"/>
</g>
<defs>
<clipPath id="clip0_1411_26905">
<rect width="16.6667" height="16.6667" fill="white" transform="translate(0.666748 0.666656)"/>
</clipPath>
</defs>
</svg>
