<svg width="18" height="18" viewBox="0 0 18 18" fill="none" xmlns="http://www.w3.org/2000/svg">
<g clip-path="url(#clip0_1411_55322)">
<path fill-rule="evenodd" clip-rule="evenodd" d="M0.666626 1.49984C0.666626 1.0396 1.03972 0.666504 1.49996 0.666504H16.5C16.9602 0.666504 17.3333 1.0396 17.3333 1.49984V3.65466C17.3333 4.09669 17.1577 4.52061 16.8451 4.83317L11.5 10.1783V14.8332C11.5 15.1488 11.3216 15.4374 11.0393 15.5785L7.70597 17.2452C7.44765 17.3744 7.14086 17.3606 6.89518 17.2087C6.6495 17.0569 6.49996 16.7887 6.49996 16.4998V10.1783L1.15478 4.83317C0.84222 4.52061 0.666626 4.09669 0.666626 3.65466V1.49984ZM2.33329 2.33317V3.65466L7.92255 9.24392C8.07883 9.4002 8.16663 9.61216 8.16663 9.83317V15.1515L9.83329 14.3181V9.83317C9.83329 9.61216 9.92109 9.4002 10.0774 9.24392L15.6666 3.65466V2.33317H2.33329Z" fill="#808089"/>
</g>
<defs>
<clipPath id="clip0_1411_55322">
<rect width="16.6667" height="16.6667" fill="white" transform="translate(0.666626 0.666504)"/>
</clipPath>
</defs>
</svg>
