<svg width="18" height="18" viewBox="0 0 18 18" fill="none" xmlns="http://www.w3.org/2000/svg">
<path d="M5.42259 4.24408C5.09715 3.91864 4.56951 3.91864 4.24408 4.24408C3.91864 4.56951 3.91864 5.09715 4.24408 5.42259L7.82149 9L4.24408 12.5774C3.91864 12.9028 3.91864 13.4305 4.24408 13.7559C4.56951 14.0814 5.09715 14.0814 5.42259 13.7559L9 10.1785L12.5774 13.7559C12.9028 14.0814 13.4305 14.0814 13.7559 13.7559C14.0814 13.4305 14.0814 12.9028 13.7559 12.5774L10.1785 9L13.7559 5.42259C14.0814 5.09715 14.0814 4.56951 13.7559 4.24408C13.4305 3.91864 12.9028 3.91864 12.5774 4.24408L9 7.82149L5.42259 4.24408Z" fill="white"/>
</svg>
