<svg width="18" height="18" viewBox="0 0 18 18" fill="none" xmlns="http://www.w3.org/2000/svg">
<g clip-path="url(#clip0_1411_55332)">
<path fill-rule="evenodd" clip-rule="evenodd" d="M4.24416 0.910582C4.5696 0.585145 5.09723 0.585145 5.42267 0.910582L8.756 4.24392C9.08144 4.56935 9.08144 5.09699 8.756 5.42243C8.43057 5.74786 7.90293 5.74786 7.57749 5.42243L5.66675 3.51168V14.8332C5.66675 15.2934 5.29365 15.6665 4.83342 15.6665C4.37318 15.6665 4.00008 15.2934 4.00008 14.8332V3.51168L2.08934 5.42243C1.7639 5.74786 1.23626 5.74786 0.910826 5.42243C0.585389 5.09699 0.585389 4.56935 0.910826 4.24392L4.24416 0.910582ZM13.1667 2.33317C13.627 2.33317 14.0001 2.70627 14.0001 3.1665L14.0001 14.488L15.9108 12.5772C16.2363 12.2518 16.7639 12.2518 17.0893 12.5772C17.4148 12.9027 17.4148 13.4303 17.0893 13.7558L13.756 17.0891C13.5997 17.2454 13.3878 17.3332 13.1667 17.3332C12.9457 17.3332 12.7338 17.2454 12.5775 17.0891L9.24416 13.7558C8.91872 13.4303 8.91872 12.9027 9.24416 12.5772C9.5696 12.2518 10.0972 12.2518 10.4227 12.5772L12.3334 14.488L12.3334 3.1665C12.3334 2.70627 12.7065 2.33317 13.1667 2.33317Z" fill="#1A94FF"/>
</g>
<defs>
<clipPath id="clip0_1411_55332">
<rect width="16.6667" height="16.6667" fill="white" transform="translate(0.666748 0.666504)"/>
</clipPath>
</defs>
</svg>
