<svg width="18" height="18" viewBox="0 0 18 18" fill="none" xmlns="http://www.w3.org/2000/svg">
<path d="M4.8335 9C4.8335 9.69036 4.27385 10.25 3.5835 10.25C2.89314 10.25 2.3335 9.69036 2.3335 9C2.3335 8.30964 2.89314 7.75 3.5835 7.75C4.27385 7.75 4.8335 8.30964 4.8335 9Z" fill="white"/>
<path d="M15.6668 9C15.6668 9.69036 15.1072 10.25 14.4168 10.25C13.7265 10.25 13.1668 9.69036 13.1668 9C13.1668 8.30964 13.7265 7.75 14.4168 7.75C15.1072 7.75 15.6668 8.30964 15.6668 9Z" fill="white"/>
<path d="M9.00016 10.25C9.69052 10.25 10.2502 9.69036 10.2502 9C10.2502 8.30964 9.69052 7.75 9.00016 7.75C8.30981 7.75 7.75016 8.30964 7.75016 9C7.75016 9.69036 8.30981 10.25 9.00016 10.25Z" fill="white"/>
</svg>
