<svg width="18" height="18" viewBox="0 0 18 18" fill="none" xmlns="http://www.w3.org/2000/svg">
<g clip-path="url(#clip0_1411_26909)">
<path fill-rule="evenodd" clip-rule="evenodd" d="M17.3334 11.5V14C17.3334 14.9205 16.5872 15.6666 15.6667 15.6666L2.33341 15.6666C1.41294 15.6666 0.666748 14.9205 0.666748 14V11.5L1.39898 10.7677C2.37529 9.79144 2.37529 8.20852 1.39898 7.23221L0.666748 6.49998V3.99998C0.666748 3.07951 1.41294 2.33331 2.33342 2.33331H15.6667C16.5872 2.33331 17.3334 3.07951 17.3334 3.99998V6.49998L16.6012 7.23221C15.6249 8.20852 15.6249 9.79143 16.6012 10.7677L17.3334 11.5ZM5.66675 7.33331C5.66675 6.87308 6.03984 6.49998 6.50008 6.49998H11.5001C11.9603 6.49998 12.3334 6.87308 12.3334 7.33331C12.3334 7.79355 11.9603 8.16665 11.5001 8.16665H6.50008C6.03984 8.16665 5.66675 7.79355 5.66675 7.33331ZM6.50008 9.83331C6.03984 9.83331 5.66675 10.2064 5.66675 10.6666C5.66675 11.1269 6.03984 11.5 6.50008 11.5H11.5001C11.9603 11.5 12.3334 11.1269 12.3334 10.6666C12.3334 10.2064 11.9603 9.83331 11.5001 9.83331H6.50008Z" fill="white"/>
</g>
<defs>
<clipPath id="clip0_1411_26909">
<rect width="16.6667" height="16.6667" fill="white" transform="translate(0.666748 0.666656)"/>
</clipPath>
</defs>
</svg>
