<svg width="20" height="20" viewBox="0 0 20 20" fill="none" xmlns="http://www.w3.org/2000/svg">
<path d="M4.37464 15.0636L1.08746 9.88126C0.906205 9.59551 1.0552 9.21601 1.38244 9.1299L2.17458 8.92146C2.47745 8.84176 2.80015 8.90855 3.0465 9.10192L4.62192 10.3385L7.5197 9.56206L3.21304 3.80555C2.97953 3.49342 3.17715 3.04599 3.56514 3.00836L5.2669 2.84336C5.5478 2.81612 5.82712 2.90884 6.03597 3.09864L11.8664 8.39737L16.4544 7.16801C17.6547 6.84639 18.8885 7.55871 19.2101 8.75902C19.5317 9.95933 18.8194 11.1931 17.6191 11.5147L4.37464 15.0636Z" fill="#808089"/>
<path d="M1 18C0.447715 18 0 18.4477 0 19C0 19.5523 0.447715 20 1 20H19C19.5523 20 20 19.5523 20 19C20 18.4477 19.5523 18 19 18H1Z" fill="#808089"/>
</svg>
