<svg width="20" height="20" viewBox="0 0 20 20" fill="none" xmlns="http://www.w3.org/2000/svg">
<path d="M2.16298 12.1186L1.90735 5.98704C1.89326 5.64895 2.21204 5.39479 2.5385 5.48383L3.32873 5.69939C3.63087 5.7818 3.87694 6.001 3.9936 6.29163L4.73966 8.15027L7.63743 8.92673L6.78602 1.78812C6.73985 1.40104 7.13471 1.11236 7.48954 1.27378L9.04581 1.98176C9.30269 2.09862 9.49823 2.31858 9.5842 2.58738L11.9841 10.0914L16.5721 11.3208C17.7725 11.6424 18.4848 12.8762 18.1632 14.0765C17.8415 15.2768 16.6078 15.9891 15.4075 15.6675L2.16298 12.1186Z" fill="#808089"/>
<path d="M1 18C0.447715 18 0 18.4477 0 19C0 19.5523 0.447715 20 1 20H19C19.5523 20 20 19.5523 20 19C20 18.4477 19.5523 18 19 18H1Z" fill="#808089"/>
</svg>
