<svg width="24" height="24" viewBox="0 0 24 24" fill="none" xmlns="http://www.w3.org/2000/svg">
<g clip-path="url(#clip0_1411_44915)">
<path fill-rule="evenodd" clip-rule="evenodd" d="M8.19518 5.52858C8.45553 5.26823 8.87764 5.26823 9.13799 5.52858L11.8047 8.19524C12.065 8.45559 12.065 8.8777 11.8047 9.13805C11.5443 9.3984 11.1222 9.3984 10.8618 9.13805L9.33325 7.60946V16.6666C9.33325 17.0348 9.03478 17.3333 8.66659 17.3333C8.2984 17.3333 7.99992 17.0348 7.99992 16.6666V7.60946L6.47132 9.13805C6.21097 9.3984 5.78886 9.3984 5.52851 9.13805C5.26816 8.8777 5.26816 8.45559 5.52851 8.19524L8.19518 5.52858ZM15.3333 6.66665C15.7014 6.66665 15.9999 6.96512 15.9999 7.33331L15.9999 16.3905L17.5285 14.8619C17.7889 14.6016 18.211 14.6016 18.4713 14.8619C18.7317 15.1223 18.7317 15.5444 18.4713 15.8047L15.8047 18.4714C15.6796 18.5964 15.5101 18.6666 15.3333 18.6666C15.1564 18.6666 14.9869 18.5964 14.8618 18.4714L12.1952 15.8047C11.9348 15.5444 11.9348 15.1223 12.1952 14.8619C12.4555 14.6016 12.8776 14.6016 13.138 14.8619L14.6666 16.3905V7.33331C14.6666 6.96512 14.9651 6.66665 15.3333 6.66665Z" fill="#1A94FF"/>
</g>
<rect x="0.5" y="0.5" width="23" height="23" rx="11.5" stroke="#1A94FF"/>
<defs>
<clipPath id="clip0_1411_44915">
<rect width="13.3333" height="13.3333" fill="white" transform="translate(5.33325 5.33331)"/>
</clipPath>
</defs>
</svg>
